<?xml version="1.0" encoding="UTF-8" standalone="no"?><svg xmlns="http://www.w3.org/2000/svg" xmlns:xlink="http://www.w3.org/1999/xlink" contentScriptType="application/ecmascript" contentStyleType="text/css" height="395px" preserveAspectRatio="none" style="width:650px;height:395px;" version="1.1" viewBox="0 0 650 395" width="650px" zoomAndPan="magnify"><defs><filter height="300%" id="ff2t6hq" width="300%" x="-1" y="-1"><feGaussianBlur result="blurOut" stdDeviation="2.0"/><feColorMatrix in="blurOut" result="blurOut2" type="matrix" values="0 0 0 0 0 0 0 0 0 0 0 0 0 0 0 0 0 0 .4 0"/><feOffset dx="4.0" dy="4.0" in="blurOut2" result="blurOut3"/><feBlend in="SourceGraphic" in2="blurOut3" mode="normal"/></filter></defs><g><rect fill="#FFFFFF" filter="url(#ff2t6hq)" height="184.7588" style="stroke: #383838; stroke-width: 1.0;" width="10" x="213" y="117.29"/><rect fill="#FFFFFF" filter="url(#ff2t6hq)" height="117.3794" style="stroke: #383838; stroke-width: 1.0;" width="10" x="396" y="175.543"/><rect fill="#FFFFFF" filter="url(#ff2t6hq)" height="59.1265" style="stroke: #383838; stroke-width: 1.0;" width="10" x="601" y="146.4165"/><line style="stroke: #383838; stroke-width: 1.0; stroke-dasharray: 5.0,5.0;" x1="31" x2="31" y1="86.29" y2="311.0488"/><line style="stroke: #383838; stroke-width: 1.0; stroke-dasharray: 5.0,5.0;" x1="218" x2="218" y1="86.29" y2="311.0488"/><line style="stroke: #383838; stroke-width: 1.0; stroke-dasharray: 5.0,5.0;" x1="401" x2="401" y1="86.29" y2="311.0488"/><line style="stroke: #383838; stroke-width: 1.0; stroke-dasharray: 5.0,5.0;" x1="606" x2="606" y1="86.29" y2="311.0488"/><text fill="#000000" font-family="sans-serif" font-size="14" lengthAdjust="spacingAndGlyphs" textLength="40" x="8" y="83.3027">Client</text><ellipse cx="31" cy="13" fill="#F8F8F8" filter="url(#ff2t6hq)" rx="8" ry="8" style="stroke: #383838; stroke-width: 2.0;"/><path d="M31,21 L31,48 M18,29 L44,29 M31,48 L18,63 M31,48 L44,63 " fill="#F8F8F8" filter="url(#ff2t6hq)" style="stroke: #383838; stroke-width: 2.0;"/><text fill="#000000" font-family="sans-serif" font-size="14" lengthAdjust="spacingAndGlyphs" textLength="40" x="8" y="323.3516">Client</text><ellipse cx="31" cy="336.3389" fill="#F8F8F8" filter="url(#ff2t6hq)" rx="8" ry="8" style="stroke: #383838; stroke-width: 2.0;"/><path d="M31,344.3389 L31,371.3389 M18,352.3389 L44,352.3389 M31,371.3389 L18,386.3389 M31,371.3389 L44,386.3389 " fill="#F8F8F8" filter="url(#ff2t6hq)" style="stroke: #383838; stroke-width: 2.0;"/><rect fill="#F8F8F8" filter="url(#ff2t6hq)" height="30.29" style="stroke: #383838; stroke-width: 1.5;" width="186" x="123" y="51"/><text fill="#000000" font-family="sans-serif" font-size="14" lengthAdjust="spacingAndGlyphs" textLength="172" x="130" y="71.3027">Firewall - DEFAULT DENY</text><rect fill="#F8F8F8" filter="url(#ff2t6hq)" height="30.29" style="stroke: #383838; stroke-width: 1.5;" width="186" x="123" y="310.0488"/><text fill="#000000" font-family="sans-serif" font-size="14" lengthAdjust="spacingAndGlyphs" textLength="172" x="130" y="330.3516">Firewall - DEFAULT DENY</text><rect fill="#F8F8F8" filter="url(#ff2t6hq)" height="30.29" style="stroke: #383838; stroke-width: 1.5;" width="76" x="361" y="51"/><text fill="#000000" font-family="sans-serif" font-size="14" lengthAdjust="spacingAndGlyphs" textLength="62" x="368" y="71.3027">IPTABLES</text><rect fill="#F8F8F8" filter="url(#ff2t6hq)" height="30.29" style="stroke: #383838; stroke-width: 1.5;" width="76" x="361" y="310.0488"/><text fill="#000000" font-family="sans-serif" font-size="14" lengthAdjust="spacingAndGlyphs" textLength="62" x="368" y="330.3516">IPTABLES</text><rect fill="#F8F8F8" filter="url(#ff2t6hq)" height="30.29" style="stroke: #383838; stroke-width: 1.5;" width="74" x="567" y="51"/><text fill="#000000" font-family="sans-serif" font-size="14" lengthAdjust="spacingAndGlyphs" textLength="60" x="574" y="71.3027">fwknopd</text><rect fill="#F8F8F8" filter="url(#ff2t6hq)" height="30.29" style="stroke: #383838; stroke-width: 1.5;" width="74" x="567" y="310.0488"/><text fill="#000000" font-family="sans-serif" font-size="14" lengthAdjust="spacingAndGlyphs" textLength="60" x="574" y="330.3516">fwknopd</text><rect fill="#FFFFFF" filter="url(#ff2t6hq)" height="184.7588" style="stroke: #383838; stroke-width: 1.0;" width="10" x="213" y="117.29"/><rect fill="#FFFFFF" filter="url(#ff2t6hq)" height="117.3794" style="stroke: #383838; stroke-width: 1.0;" width="10" x="396" y="175.543"/><rect fill="#FFFFFF" filter="url(#ff2t6hq)" height="59.1265" style="stroke: #383838; stroke-width: 1.0;" width="10" x="601" y="146.4165"/><polygon fill="#383838" points="201,113.29,211,117.29,201,121.29,205,117.29" style="stroke: #383838; stroke-width: 1.0;"/><line style="stroke: #383838; stroke-width: 1.0;" x1="31" x2="207" y1="117.29" y2="117.29"/><text fill="#000000" font-family="sans-serif" font-size="13" lengthAdjust="spacingAndGlyphs" textLength="98" x="38" y="112.6426">udp/62201 SPA</text><polygon fill="#383838" points="589,142.4165,599,146.4165,589,150.4165,593,146.4165" style="stroke: #383838; stroke-width: 1.0;"/><line style="stroke: #383838; stroke-width: 1.0; stroke-dasharray: 2.0,2.0;" x1="223" x2="595" y1="146.4165" y2="146.4165"/><text fill="#000000" font-family="sans-serif" font-size="13" lengthAdjust="spacingAndGlyphs" textLength="87" x="230" y="141.769">Sniff-Request</text><polygon fill="#383838" points="417,171.543,407,175.543,417,179.543,413,175.543" style="stroke: #383838; stroke-width: 1.0;"/><line style="stroke: #383838; stroke-width: 1.0;" x1="411" x2="600" y1="175.543" y2="175.543"/><text fill="#000000" font-family="sans-serif" font-size="13" lengthAdjust="spacingAndGlyphs" textLength="176" x="423" y="170.8955">enable tcp/22 for verified IP</text><polygon fill="#383838" points="201,230.6694,211,234.6694,201,238.6694,205,234.6694" style="stroke: #383838; stroke-width: 1.0;"/><line style="stroke: #383838; stroke-width: 1.0; stroke-dasharray: 2.0,2.0;" x1="31" x2="207" y1="234.6694" y2="234.6694"/><text fill="#000000" font-family="sans-serif" font-size="13" lengthAdjust="spacingAndGlyphs" textLength="89" x="38" y="230.022">ssh on tcp/22</text><polygon fill="#383838" points="42,259.7959,32,263.7959,42,267.7959,38,263.7959" style="stroke: #383838; stroke-width: 1.0;"/><line style="stroke: #383838; stroke-width: 1.0;" x1="36" x2="212" y1="263.7959" y2="263.7959"/><text fill="#000000" font-family="sans-serif" font-size="13" lengthAdjust="spacingAndGlyphs" textLength="158" x="48" y="259.1484">ssh-session-established</text><polygon fill="#383838" points="234,288.9224,224,292.9224,234,296.9224,230,292.9224" style="stroke: #383838; stroke-width: 1.0;"/><line style="stroke: #383838; stroke-width: 1.0;" x1="228" x2="400" y1="292.9224" y2="292.9224"/><text fill="#000000" font-family="sans-serif" font-size="13" lengthAdjust="spacingAndGlyphs" textLength="149" x="240" y="288.2749">expire access to tcp/22</text></g>
<g transform="translate(0.000000,17.000000) scale(0.100000,-0.100000)"
fill="#000000" stroke="none">
<path d="M21 157 c-29 -35 -16 -97 20 -97 15 0 19 -5 15 -16 -3 -9 -6 -20 -6
-25 0 -5 -4 -9 -10 -9 -14 0 -12 27 3 33 6 3 2 6 -10 6 -30 1 -31 -35 -3 -44
28 -9 47 9 55 51 3 20 9 42 12 50 3 8 -1 14 -11 14 -9 0 -16 -8 -16 -19 0 -26
-15 -34 -30 -16 -13 16 -6 48 16 70 14 13 13 15 -4 15 -11 0 -25 -6 -31 -13z"/>
<path d="M80 150 c0 -13 5 -20 13 -17 6 2 12 10 12 17 0 7 -6 15 -12 18 -8 2
-13 -5 -13 -18z"/>
<path d="M347 164 c-13 -13 -7 -24 14 -24 11 0 19 5 17 12 -5 14 -22 21 -31
12z"/>
<path d="M103 85 c-9 -40 -8 -45 8 -45 13 0 19 9 21 33 2 24 7 31 21 29 10 -2
17 3 17 13 0 10 -9 15 -28 15 -26 0 -30 -5 -39 -45z"/>
<path d="M175 101 c-24 -48 -13 -59 64 -60 63 -1 69 1 79 25 15 31 15 64 1 64
-6 0 -8 -8 -5 -18 4 -10 -1 -27 -10 -38 -14 -18 -15 -17 -9 19 5 29 3 37 -9
37 -9 0 -18 -13 -22 -35 -3 -19 -10 -35 -14 -35 -4 0 -4 16 0 35 8 35 8 35
-26 35 -27 0 -36 -6 -49 -29z m47 -6 c-5 -28 -22 -44 -22 -21 0 21 11 46 20
46 4 0 5 -11 2 -25z"/>
<path d="M340 116 c0 -7 -3 -28 -6 -45 -6 -26 -3 -31 13 -31 10 0 25 6 32 12
11 10 13 10 7 1 -5 -9 3 -13 28 -13 25 0 36 4 36 15 0 8 -4 15 -10 15 -5 0
-10 -4 -10 -10 0 -5 -5 -10 -11 -10 -6 0 -2 12 9 28 36 51 36 52 -2 52 -25 0
-36 -4 -36 -15 0 -8 5 -15 10 -15 6 0 10 5 10 12 0 6 3 9 6 6 9 -10 -19 -46
-39 -52 -17 -4 -18 -1 -13 30 6 27 4 34 -9 34 -8 0 -15 -6 -15 -14z"/>
<path d="M472 118 c-7 -7 -12 -27 -12 -46 0 -30 2 -33 27 -30 17 2 32 12 39
27 7 13 18 28 26 33 10 8 9 8 -4 4 -12 -3 -18 0 -18 9 0 18 -41 20 -58 3z m29
-51 c-13 -13 -15 11 -4 40 7 16 8 15 11 -6 2 -13 -1 -28 -7 -34z"/>
</g>
</svg>